<svg xmlns="http://www.w3.org/2000/svg" viewBox="0 0 95.27 51.9"><defs><style>.cls-1{fill:#ededed;}</style></defs><g id="tipografía"><path class="cls-1" d="M28,26.08,33,24.64v34H28Z" transform="translate(-27.71 -24.64)"/><path class="cls-1" d="M54.72,48.54c.12-.21.45-.77,1-1.67A16.61,16.61,0,0,1,57,45a7,7,0,0,1-4.81,1.49,10.05,10.05,0,0,1-5.29-1.4,9.53,9.53,0,0,1-3.6-3.82A11.33,11.33,0,0,1,42,35.85a10.68,10.68,0,0,1,1.48-5.65,10,10,0,0,1,4.16-3.8,13.59,13.59,0,0,1,6.19-1.35,11.84,11.84,0,0,1,5.58,1.32,9.83,9.83,0,0,1,4,3.85,11.4,11.4,0,0,1,1.47,5.85,15,15,0,0,1-.59,4.19,39.56,39.56,0,0,1-2.7,6.16q-2.12,4.14-6.79,12.24H48.92Zm3.17-8.06a5.9,5.9,0,0,0,1.78-4.54,6.52,6.52,0,0,0-1.75-4.71,5.88,5.88,0,0,0-4.41-1.82,6.11,6.11,0,0,0-4.62,1.82,6.52,6.52,0,0,0-1.73,4.66A5.94,5.94,0,0,0,49,40.48a6.26,6.26,0,0,0,4.41,1.67A6.34,6.34,0,0,0,57.89,40.48Z" transform="translate(-27.71 -24.64)"/><path class="cls-1" d="M83.79,48.54c.12-.21.45-.77,1-1.67A16.61,16.61,0,0,1,86,45a7,7,0,0,1-4.81,1.49,10.05,10.05,0,0,1-5.29-1.4,9.53,9.53,0,0,1-3.6-3.82,11.33,11.33,0,0,1-1.28-5.4,10.68,10.68,0,0,1,1.48-5.65,10,10,0,0,1,4.16-3.8,13.59,13.59,0,0,1,6.19-1.35,11.84,11.84,0,0,1,5.58,1.32,9.83,9.83,0,0,1,4,3.85,11.4,11.4,0,0,1,1.47,5.85,15,15,0,0,1-.59,4.19,39.56,39.56,0,0,1-2.7,6.16q-2.11,4.14-6.79,12.24H78ZM87,40.48a5.9,5.9,0,0,0,1.78-4.54A6.52,6.52,0,0,0,87,31.23a5.88,5.88,0,0,0-4.41-1.82A6.11,6.11,0,0,0,78,31.23a6.52,6.52,0,0,0-1.73,4.66A5.94,5.94,0,0,0,78,40.48a6.26,6.26,0,0,0,4.41,1.67A6.34,6.34,0,0,0,87,40.48Z" transform="translate(-27.71 -24.64)"/><path class="cls-1" d="M112.86,48.54c.12-.21.45-.77,1-1.67A16.61,16.61,0,0,1,115.11,45a7,7,0,0,1-4.81,1.49,10.05,10.05,0,0,1-5.29-1.4,9.53,9.53,0,0,1-3.6-3.82,11.33,11.33,0,0,1-1.28-5.4,10.68,10.68,0,0,1,1.48-5.65,10,10,0,0,1,4.16-3.8A13.59,13.59,0,0,1,112,25.05a11.84,11.84,0,0,1,5.58,1.32,9.83,9.83,0,0,1,4,3.85A11.4,11.4,0,0,1,123,36.07a15,15,0,0,1-.59,4.19,39.56,39.56,0,0,1-2.7,6.16q-2.11,4.14-6.79,12.24h-5.85ZM116,40.48a5.9,5.9,0,0,0,1.78-4.54,6.52,6.52,0,0,0-1.75-4.71,5.88,5.88,0,0,0-4.41-1.82A6.11,6.11,0,0,0,107,31.23a6.52,6.52,0,0,0-1.73,4.66,5.94,5.94,0,0,0,1.8,4.59,6.26,6.26,0,0,0,4.41,1.67A6.34,6.34,0,0,0,116,40.48Z" transform="translate(-27.71 -24.64)"/><text x="-27.71" y="-24.64"/><path class="cls-1" d="M27.94,60.31h3.82c2.62,0,3.75,1.21,3.76,3.7v.64c0,1.66-.5,2.69-1.63,3.15v0c1.36.46,1.89,1.65,1.89,3.36v1.38c0,2.48-1.3,3.81-3.83,3.82H28Zm3.53,6.55c1,0,1.52-.42,1.52-1.71v-.9c0-1.14-.4-1.65-1.29-1.65H30.48v4.26Zm.47,7.24c.85,0,1.31-.39,1.31-1.59v-1.4c0-1.5-.49-2-1.64-2H30.49V74.1Z" transform="translate(-27.71 -24.64)"/><path class="cls-1" d="M39.19,60.29h3.43l2.64,16.09H42.73l-.46-3.19v0H39.4l-.46,3.15H36.59ZM42,71.05l-1.14-8h0l-1.09,8Z" transform="translate(-27.71 -24.64)"/><path class="cls-1" d="M46.46,60.28h3.75c2.62,0,3.75,1.22,3.75,3.7v1c0,1.65-.52,2.71-1.65,3.17v.05c1.27.39,1.68,1.58,1.69,3.4v2.83a4.75,4.75,0,0,0,.28,2H51.7a5.16,5.16,0,0,1-.23-2V71.45c0-1.5-.44-2-1.59-2H49v6.9H46.48Zm3.46,6.89c.94,0,1.52-.41,1.51-1.7V64.23c0-1.15-.39-1.66-1.29-1.66H49v4.59Z" transform="translate(-27.71 -24.64)"/><path class="cls-1" d="M55.73,60.26h3.81c2.63,0,3.76,1.21,3.76,3.7v.64c0,1.65-.5,2.69-1.63,3.15v0c1.36.46,1.89,1.65,1.89,3.35v1.38c0,2.49-1.31,3.82-3.84,3.83h-4Zm3.53,6.55c.94,0,1.51-.41,1.51-1.7v-.9c0-1.15-.39-1.65-1.29-1.65H58.26v4.25Zm.47,7.25c.85,0,1.31-.4,1.31-1.59V71.06c0-1.49-.48-2-1.63-2H58.27v5Z" transform="translate(-27.71 -24.64)"/><path class="cls-1" d="M65,60.25h6.9v2.3H67.55V66.8H71v2.3H67.56V74h4.37v2.3H65Z" transform="translate(-27.71 -24.64)"/><path class="cls-1" d="M73.37,60.24h3.75c2.62,0,3.75,1.21,3.75,3.7v1c0,1.65-.52,2.71-1.65,3.17v0c1.27.39,1.68,1.58,1.69,3.4v2.83a4.61,4.61,0,0,0,.28,1.95H78.61a5,5,0,0,1-.23-2V71.41c0-1.5-.44-2-1.59-2h-.88v6.9H73.39Zm3.46,6.89c.94,0,1.52-.42,1.51-1.7V64.18c0-1.14-.39-1.65-1.29-1.65H75.9v4.6Z" transform="translate(-27.71 -24.64)"/><path class="cls-1" d="M85.9,72.5v-.92h2.39v1.11c0,1.15.51,1.56,1.31,1.56s1.31-.42,1.31-1.61S90.4,70.44,88.75,69c-2.12-1.86-2.81-3.17-2.82-5,0-2.53,1.31-4,3.77-4s3.68,1.47,3.68,4v.67H91v-.82c0-1.15-.46-1.59-1.27-1.59s-1.26.44-1.26,1.54.53,2,2.19,3.47c2.12,1.86,2.79,3.15,2.79,5.15,0,2.62-1.32,4.1-3.81,4.1S85.9,75.07,85.9,72.5Z" transform="translate(-27.71 -24.64)"/><path class="cls-1" d="M94.87,60.2H97.4v6.55h2.72V60.2h2.53l0,16.1h-2.53V69.05H97.42V76.3H94.9Z" transform="translate(-27.71 -24.64)"/><path class="cls-1" d="M104.37,72.47V64c0-2.58,1.35-4.05,3.83-4.06S112,61.42,112,64v8.46c0,2.57-1.35,4.05-3.84,4.05S104.37,75,104.37,72.47Zm5.15.15V63.84c0-1.15-.51-1.59-1.32-1.59s-1.31.44-1.31,1.59l0,8.79c0,1.15.51,1.58,1.31,1.58S109.52,73.77,109.52,72.62Z" transform="translate(-27.71 -24.64)"/><path class="cls-1" d="M113.73,60.18h3.73c2.53,0,3.77,1.4,3.78,4v1.59c0,2.57-1.24,4-3.77,4h-1.19v6.56h-2.53Zm3.74,7.23c.8,0,1.24-.37,1.24-1.52V64c0-1.15-.44-1.52-1.25-1.52h-1.19v5Z" transform="translate(-27.71 -24.64)"/></g></svg>