<?xml version='1.0' encoding='iso-8859-1'?>
<!DOCTYPE svg PUBLIC '-//W3C//DTD SVG 1.1//EN' 'http://www.w3.org/Graphics/SVG/1.1/DTD/svg11.dtd'>
<!-- Uploaded to: SVG Repo, www.svgrepo.com, Generator: SVG Repo Mixer Tools -->
<svg fill="#000000" height="800px" width="800px" version="1.1" xmlns="http://www.w3.org/2000/svg" viewBox="0 0 426.701 426.701" xmlns:xlink="http://www.w3.org/1999/xlink" enable-background="new 0 0 426.701 426.701">
  <g>
    <path d="M264.232,71.121V10c0-5.523-4.478-10-10-10h-81.763c-5.522,0-10,4.477-10,10v61.121   c-32.984,10.538-56.939,41.472-56.939,77.905v253.062c0,13.571,11.041,24.612,24.612,24.612h166.417   c13.571,0,24.612-11.041,24.612-24.612V149.027C321.171,112.593,297.216,81.659,264.232,71.121z M182.469,20h61.763v47.41   c-1.6-0.094-3.209-0.155-4.832-0.155h-52.098c-1.624,0-3.232,0.061-4.833,0.155V20z M301.171,402.089   c0,2.543-2.069,4.612-4.612,4.612H130.142c-2.543,0-4.612-2.069-4.612-4.612V149.027c0-34.061,27.711-61.772,61.772-61.772H239.4   c34.061,0,61.771,27.711,61.771,61.772V402.089z"/>
    <path d="m256.387,188.491h-86.072c-14.729,0-26.711,11.982-26.711,26.711v102.572c0,14.728 11.982,26.711 26.711,26.711h86.072c14.729,0 26.711-11.982 26.711-26.711v-102.573c0-14.728-11.982-26.71-26.711-26.71zm11.711,129.282c0,6.457-5.254,11.711-11.711,11.711h-86.072c-6.457,0-11.711-5.253-11.711-11.711v-102.572c0-6.457 5.254-11.711 11.711-11.711h86.072c6.457,0 11.711,5.253 11.711,11.711v102.572z"/>
  </g>
</svg>